<?xml version="1.0" encoding="utf-8"?>
<!-- Generator: Adobe Illustrator 22.1.0, SVG Export Plug-In . SVG Version: 6.00 Build 0)  -->
<svg version="1.1" id="Shape_logo" xmlns="http://www.w3.org/2000/svg" xmlns:xlink="http://www.w3.org/1999/xlink" x="0px" y="0px"
	 viewBox="0 0 159.9 34.5" style="enable-background:new 0 0 159.9 34.5;" xml:space="preserve">
<style type="text/css">
	.st0{fill:#2163E8;}
	.st1{opacity:0.8;fill:#FFFFFF;enable-background:new    ;}
	.st2{fill:#FFFFFF;}
</style>
<g id="logo_icon">
	<path class="st0" d="M9,28.2H8.7L4,28.1c-1.8,0-3.5-1.2-4-2.9C0,24.9,0,24.6,0,24.3C0,17.6,0,10.7,0,3.7C0,2.1,1,0.7,2.5,0.2
		C3.1,0,3.7,0,4.3,0c10.5,1.1,20.2,2.2,29.4,3.2c1.6,0.2,2.9,1.5,3.1,3.1c0,0.3,0,0.6,0,0.8c-0.4,6.2-0.9,12.2-1.3,18.1
		c-0.1,1.3-0.9,2.5-2.1,3c-0.4,0.2-0.9,0.3-1.4,0.3c-5.1-0.1-10.3-0.2-15.8-0.3c-0.2,0-0.3,0-0.4,0.2c-1.9,1.9-3.9,3.8-5.8,5.8
		c-0.2,0.3-0.6,0.3-0.9,0.1C9,34.3,9,34.3,8.9,34.2c0-0.1-0.1-0.2,0-0.4c0-1.8,0.1-3.6,0.1-5.3C9,28.4,9,28.3,9,28.2z"/>
	<path id="_" class="st1" d="M10.7,16.2c-0.1,2.8,1.1,4.2,3.5,4.3s3.6-1,3.7-3.3c0.1-2.2-1-3.4-3.1-3.6c0.4-1.3,1.3-2.3,2.4-2.9
		l0.1-2.6C13,9.1,10.8,11.8,10.7,16.2L10.7,16.2L10.7,16.2z M27.1,13.2c0.1-2.7-0.9-4.1-3.1-4.3c-2.3-0.2-3.5,0.9-3.6,3.2
		c-0.1,2.2,0.9,3.4,3,3.6c-0.4,1.2-1.2,2.2-2.4,2.8l-0.1,2.4C24.8,19.8,26.8,17.3,27.1,13.2L27.1,13.2L27.1,13.2z"/>
</g>
<g>
	<path class="st2" d="M49.4,9.7H44V6.1h14.9v3.7h-5.4v15.1h-4.1V9.7z"/>
	<path class="st2" d="M69.8,22.7c-1.3,1.6-3.4,2.5-5.4,2.5c-4,0-7.2-2.7-7.2-6.8c0-4.1,3.2-6.8,7.2-6.8c3.7,0,6.1,2.7,6.1,6.8v1.2
		h-9.2c0.3,1.5,1.5,2.5,3,2.5c1.3,0,2.2-0.7,2.8-1.6L69.8,22.7z M66.4,17c0-1.3-1-2.4-2.4-2.4c-1.8,0-2.7,1.2-2.8,2.4H66.4z"/>
	<path class="st2" d="M72.8,12h4V14h0.1c0.9-1.6,2-2.4,3.7-2.4c0.5,0,1,0,1.3,0.1v3.6c-0.6-0.2-1.1-0.3-1.7-0.3
		c-3,0-3.4,1.8-3.4,4.3v5.4h-4V12z"/>
	<path class="st2" d="M83.6,12h3.8v1.8h0.1c0.5-1,1.8-2.1,3.8-2.1c1.8,0,3.3,0.7,4,2.3c0.9-1.6,2.2-2.3,4.1-2.3
		c3.5,0,4.6,2.5,4.6,5.6v7.6h-4v-7.5c0-1.2-0.5-2.2-1.8-2.2c-1.8,0-2.4,1.3-2.4,2.9v6.8h-4v-6.8c0-1,0.1-2.9-1.8-2.9
		c-2.1,0-2.4,1.6-2.4,3.3v6.4h-4V12z"/>
	<path class="st2" d="M113.4,11.7c4,0,7.2,2.7,7.2,6.8c0,4.1-3.2,6.8-7.2,6.8c-4,0-7.2-2.7-7.2-6.8
		C106.2,14.3,109.4,11.7,113.4,11.7z M113.4,21.7c2,0,3.2-1.3,3.2-3.3c0-1.9-1.2-3.3-3.2-3.3s-3.2,1.3-3.2,3.3
		C110.2,20.4,111.4,21.7,113.4,21.7z"/>
	<path class="st2" d="M123,4.8h4v20.1h-4V4.8z"/>
	<path class="st2" d="M136.5,11.7c4,0,7.2,2.7,7.2,6.8c0,4.1-3.2,6.8-7.2,6.8c-4,0-7.2-2.7-7.2-6.8
		C129.3,14.3,132.5,11.7,136.5,11.7z M136.5,21.7c2,0,3.2-1.3,3.2-3.3c0-1.9-1.2-3.3-3.2-3.3s-3.2,1.3-3.2,3.3
		C133.3,20.4,134.5,21.7,136.5,21.7z"/>
	<path class="st2" d="M159.6,23.8c0,4.9-2.5,7.5-7.5,7.5c-2.3,0-4.6-0.4-6.5-1.9l2.2-3.3c1.2,1,2.6,1.7,4.2,1.7
		c2.4,0,3.6-1.3,3.6-3.2v-1.2h-0.1c-0.9,1.2-2.4,1.7-3.6,1.7c-3.8,0-6.3-2.8-6.3-6.7c0-3.4,2.2-6.7,5.9-6.7c2.3,0,3.8,1.1,4.4,2h0.1
		V12h3.7V23.8z M152.7,21.5c1.8,0,3.2-1.5,3.2-3.2s-1.4-3.2-3.2-3.2s-3.2,1.5-3.2,3.2S150.9,21.5,152.7,21.5z"/>
</g>
</svg>
